<svg width="41" height="41" viewBox="0 0 41 41" fill="none" xmlns="http://www.w3.org/2000/svg">
<path d="M33.9958 21.6275C33.722 21.3157 33.5709 20.915 33.5709 20.5C33.5709 20.085 33.722 19.6842 33.9958 19.3725L36.1825 16.9125C36.4235 16.6437 36.5731 16.3055 36.6099 15.9464C36.6467 15.5874 36.5689 15.2258 36.3875 14.9137L32.9708 9.00291C32.7913 8.69118 32.5179 8.44407 32.1897 8.29683C31.8615 8.14959 31.4951 8.10972 31.1429 8.18291L27.9313 8.83208C27.5226 8.91652 27.0972 8.84846 26.7352 8.64074C26.3733 8.43303 26.0999 8.10003 25.9667 7.70458L24.9246 4.57833C24.81 4.23902 24.5916 3.9443 24.3004 3.73585C24.0092 3.52739 23.6598 3.41574 23.3017 3.41666H16.4683C16.0958 3.39722 15.7271 3.50024 15.4187 3.71001C15.1102 3.91977 14.8789 4.22473 14.76 4.57833L13.8033 7.70458C13.6701 8.10003 13.3967 8.43303 13.0348 8.64074C12.6729 8.84846 12.2474 8.91652 11.8388 8.83208L8.54167 8.18291C8.20778 8.13573 7.86739 8.18842 7.56339 8.33434C7.25939 8.48026 7.00537 8.71288 6.83334 9.00291L3.41667 14.9137C3.23074 15.2224 3.14713 15.5818 3.17782 15.9408C3.2085 16.2998 3.35189 16.6399 3.5875 16.9125L5.75709 19.3725C6.03096 19.6842 6.18201 20.085 6.18201 20.5C6.18201 20.915 6.03096 21.3157 5.75709 21.6275L3.5875 24.0875C3.35189 24.3601 3.2085 24.7002 3.17782 25.0592C3.14713 25.4181 3.23074 25.7776 3.41667 26.0862L6.83334 31.9971C7.01288 32.3088 7.28625 32.5559 7.61448 32.7032C7.9427 32.8504 8.30904 32.8903 8.66125 32.8171L11.8729 32.1679C12.2816 32.0835 12.707 32.1515 13.0689 32.3592C13.4309 32.567 13.7043 32.9 13.8375 33.2954L14.8796 36.4217C14.9985 36.7752 15.2298 37.0802 15.5383 37.29C15.8467 37.4997 16.2154 37.6028 16.5879 37.5833H23.4213C23.7794 37.5843 24.1288 37.4726 24.42 37.2641C24.7112 37.0557 24.9296 36.761 25.0442 36.4217L26.0863 33.2954C26.2195 32.9 26.4929 32.567 26.8548 32.3592C27.2167 32.1515 27.6422 32.0835 28.0508 32.1679L31.2625 32.8171C31.6147 32.8903 31.9811 32.8504 32.3093 32.7032C32.6375 32.5559 32.9109 32.3088 33.0904 31.9971L36.5071 26.0862C36.6885 25.7742 36.7663 25.4126 36.7295 25.0535C36.6927 24.6945 36.543 24.3563 36.3021 24.0875L33.9958 21.6275ZM31.4504 23.9167L32.8171 25.4542L30.6304 29.2467L28.6146 28.8367C27.3842 28.5852 26.1043 28.7942 25.0179 29.424C23.9314 30.0538 23.114 31.0606 22.7208 32.2533L22.0717 34.1667H17.6983L17.0833 32.2192C16.6902 31.0265 15.8728 30.0197 14.7863 29.3898C13.6999 28.76 12.42 28.551 11.1896 28.8025L9.17375 29.2125L6.95292 25.4371L8.31959 23.8996C9.16001 22.96 9.62464 21.7435 9.62464 20.4829C9.62464 19.2223 9.16001 18.0059 8.31959 17.0662L6.95292 15.5287L9.13959 11.7704L11.1554 12.1804C12.3858 12.4319 13.6657 12.2229 14.7522 11.5931C15.8386 10.9633 16.656 9.95643 17.0492 8.76374L17.6983 6.83333H22.0717L22.7208 8.78083C23.114 9.97351 23.9314 10.9803 25.0179 11.6102C26.1043 12.24 27.3842 12.449 28.6146 12.1975L30.6304 11.7875L32.8171 15.58L31.4504 17.1175C30.6194 18.055 30.1606 19.2643 30.1606 20.5171C30.1606 21.7698 30.6194 22.9792 31.4504 23.9167ZM19.885 13.6667C18.5335 13.6667 17.2123 14.0674 16.0886 14.8183C14.9649 15.5691 14.089 16.6364 13.5718 17.885C13.0546 19.1336 12.9193 20.5076 13.183 21.8331C13.4466 23.1586 14.0974 24.3762 15.0531 25.3319C16.0088 26.2875 17.2263 26.9384 18.5519 27.202C19.8774 27.4657 21.2514 27.3304 22.5 26.8132C23.7486 26.296 24.8159 25.4201 25.5667 24.2964C26.3176 23.1727 26.7183 21.8515 26.7183 20.5C26.7183 18.6877 25.9984 16.9496 24.7169 15.6681C23.4354 14.3866 21.6973 13.6667 19.885 13.6667ZM19.885 23.9167C19.2092 23.9167 18.5487 23.7163 17.9868 23.3408C17.4249 22.9654 16.987 22.4318 16.7284 21.8075C16.4698 21.1832 16.4022 20.4962 16.534 19.8334C16.6658 19.1707 16.9912 18.5619 17.4691 18.084C17.9469 17.6062 18.5557 17.2808 19.2184 17.149C19.8812 17.0171 20.5682 17.0848 21.1925 17.3434C21.8168 17.602 22.3504 18.0399 22.7259 18.6018C23.1013 19.1637 23.3017 19.8242 23.3017 20.5C23.3017 21.4061 22.9417 22.2752 22.301 22.9159C21.6602 23.5567 20.7912 23.9167 19.885 23.9167Z" fill="black"/>
</svg>
