<svg width="38" height="38" viewBox="0 0 38 38" fill="none" xmlns="http://www.w3.org/2000/svg">
<path d="M30.0833 4.75C28.8236 4.75 27.6154 5.25045 26.7246 6.14124C25.8338 7.03204 25.3333 8.24022 25.3333 9.5V13.9967L11.0833 5.49417C10.2958 5.0242 9.39583 4.77606 8.47875 4.77606C7.56167 4.77606 6.66167 5.0242 5.87417 5.49417C5.04939 5.96288 4.36402 6.64241 3.88826 7.46315C3.41251 8.28389 3.16348 9.21634 3.16667 10.165V27.835C3.15085 28.7986 3.39554 29.7486 3.87488 30.5846C4.35422 31.4207 5.05044 32.1118 5.89 32.585C6.66735 33.0248 7.54604 33.254 8.43917 33.25C9.37137 33.2438 10.2847 32.9867 11.0833 32.5058L25.3333 24.0033V28.5C25.3333 29.7598 25.8338 30.968 26.7246 31.8588C27.6154 32.7496 28.8236 33.25 30.0833 33.25C31.3431 33.25 32.5513 32.7496 33.4421 31.8588C34.3329 30.968 34.8333 29.7598 34.8333 28.5V9.5C34.8333 8.24022 34.3329 7.03204 33.4421 6.14124C32.5513 5.25045 31.3431 4.75 30.0833 4.75ZM24.2567 20.9475L9.5 29.7825C9.19473 29.9685 8.84415 30.0669 8.48667 30.0669C8.12919 30.0669 7.77861 29.9685 7.47333 29.7825C7.12635 29.5897 6.8375 29.3073 6.63696 28.9647C6.43643 28.6221 6.33157 28.232 6.33333 27.835V10.165C6.32428 9.76429 6.42403 9.36862 6.62199 9.02011C6.81995 8.67159 7.10869 8.38327 7.4575 8.18583C7.75676 8.0147 8.09447 7.92211 8.43917 7.91667C8.81438 7.91265 9.18276 8.01712 9.5 8.2175L24.2725 17.0525C24.603 17.2588 24.8755 17.5458 25.0645 17.8865C25.2534 18.2272 25.3526 18.6104 25.3526 19C25.3526 19.3896 25.2534 19.7728 25.0645 20.1135C24.8755 20.4542 24.603 20.7412 24.2725 20.9475H24.2567ZM31.6667 28.5C31.6667 28.9199 31.4999 29.3227 31.2029 29.6196C30.906 29.9165 30.5033 30.0833 30.0833 30.0833C29.6634 30.0833 29.2607 29.9165 28.9637 29.6196C28.6668 29.3227 28.5 28.9199 28.5 28.5V9.5C28.5 9.08007 28.6668 8.67735 28.9637 8.38041C29.2607 8.08348 29.6634 7.91667 30.0833 7.91667C30.5033 7.91667 30.906 8.08348 31.2029 8.38041C31.4999 8.67735 31.6667 9.08007 31.6667 9.5V28.5Z" fill="#333333"/>
</svg>
